<svg xmlns="http://www.w3.org/2000/svg" xmlns:xlink="http://www.w3.org/1999/xlink" version="1.1" id="Layer_1" x="0" y="0" viewBox="0 0 224.31 34.17" xml:space="preserve" enable-background="new 0 0 224.30643 34.16996">
  <style type="text/css">
    
	.st0{fill:#6F2F38;}

  </style>
  <path class="st0" d="M28.52 24.53L19.22 0.26c-0.1-0.3-0.75-0.4-0.95 0L7.37 24.53c-2.51 5.62-3.77 7.73-7.18 7.98 -0.15 0-0.35 1.06 0.05 0.96 2.11-0.25 2.16-0.3 5.12-0.3 2.11 0 3.27 0.1 4.82 0.3 0.4 0.1 0.3-0.96 0.05-0.96 -2.26-0.2-3.21-0.4-3.21-1.55 0-1.41 0.85-3.37 2.16-6.33l1.76-4.02h11.45l1.51 4.02c0.95 2.51 1.91 4.82 1.91 6.33 0 1.35-1.2 1.3-3.52 1.55 -0.15 0-0.35 1.06 0.05 0.96 2.11-0.25 4.72-0.3 7.68-0.3 2.11 0 4.22 0.1 5.78 0.3 0.5 0.05 0.3-0.85 0.15-0.9C31.78 32.26 30.83 30.61 28.52 24.53zM11.54 19.25l5.68-12.86 4.67 12.86H11.54zM223.4 27.54c-0.76 3.31-1.21 3.97-8.89 3.97h-2.66c-2.31 0-3.11-0.61-3.11-7.13v-7.34h5.17c4.62 0 4.92 0.61 5.22 2.16 0.05 0.15 1.01 0.2 0.9-0.05 -0.05-0.41-0.05-1.41-0.05-1.96 0-1.15 0.1-2.36 0.3-3.11 -0.1-0.1-0.91-0.25-0.96-0.1 -0.3 1.3 0.1 1.71-5.42 1.71h-5.17V9.26c0-3.17 0.05-5.48 0.25-6.73h4.82c6.58 0 7.64 0.65 8.04 2.86 0.05 0.15 0.95 0.25 0.9 0 -0.05-0.4-0.05-1.41-0.05-1.91 0-1.05 0.05-1.96 0.35-2.91 -2.97 0.25-6.38 0.35-10.1 0.35 -5.12 0-10.04-0.1-13.71-0.35 -0.5-0.05-0.2 0.9-0.05 0.9 5.07 0.6 5.17 0.4 5.17 8.04v15.07c0 7.58-0.1 7.38-5.17 7.93 -0.15 0-0.4 1.01 0.05 0.96 3.67-0.25 8.84-0.3 13.91-0.3 3.72 0 6.93 0.25 8.79 0.25 0.85 0 1.16-0.15 1.41-1.05 0.3-1.05 0.76-3.42 0.96-4.67C224.35 27.44 223.4 27.44 223.4 27.54zM188.83 0.62c-1.51 0.2-2.91 0.3-5.08 0.3 -2.91 0-4.12-0.05-6.22-0.3 -0.41-0.1-0.2 0.85-0.05 0.85 4.52 0.5 4.72 1.05 4.72 8.04v16.57l-23.91-25.11c-2.96 0-4.92-0.1-7.03-0.35 -0.5-0.05-0.2 0.85-0.05 0.85 2.36 0.3 5.62 3.21 5.62 5.47v17.63c0 6.98-0.25 7.48-4.72 7.93 -0.15 0-0.45 1.01 0.05 0.96 2.11-0.25 3.31-0.3 6.28-0.3 2.11 0 3.47 0.1 5.02 0.3 0.5 0.05 0.25-0.96 0.1-0.96 -4.67-0.35-4.67-1.25-4.67-7.93V7.9l24.81 25.92c0.3 0.3 0.9 0.15 0.9-0.05 -0.25-2.11-0.35-6.68-0.35-9.19V9.51c0-6.68 0-7.64 4.62-8.04C189.23 1.42 189.38 0.57 188.83 0.62zM142.22 0.62c-1.56 0.2-3.01 0.3-5.13 0.3 -2.96 0-4.22-0.05-6.38-0.3 -0.5-0.05-0.3 0.81-0.05 0.85 4.47 0.5 4.93 1.21 4.93 7.58v12.06c0 6.93-3.57 10.6-10.4 10.6 -5.17 0-10.8-3.47-10.8-11.45V9.51c0-7.23 0-7.64 4.67-8.04 0.15 0 0.45-0.9-0.1-0.85 -1.51 0.2-4.07 0.3-6.23 0.3 -2.91 0-5.22-0.05-7.38-0.3 -0.5-0.05-0.35 0.85 0 0.85 4.42 0.5 4.62 0.5 4.62 8.04v11.76c0 8.08 6.23 12.91 13.91 12.91 8.94 0 13.57-5.73 13.57-12.56V9.05c0-6.07 0.2-7.18 4.87-7.58C142.58 1.47 142.73 0.57 142.22 0.62z"/>
  <path class="st0" d="M99.52 0.79c-0.03-0.12-0.12-0.21-0.3-0.19 -0.28 0.04-0.6 0.06-0.93 0.1C97.22 0.82 90.72 0.91 90.72 0.91H79.28c0 0-6.5-0.09-7.56-0.21 -0.34-0.04-0.65-0.07-0.93-0.1 -0.18-0.02-0.27 0.07-0.3 0.19l0.03 0.21c0.08 0.7 0.13 1.43 0.13 2.37 0 0.81 0 2.01-0.1 2.61 -0.05 0.15 0.9 0.15 0.9 0.05 0.45-2.21 1.25-3.36 7.84-3.36h3.5l0.03 0.01v21.89c0 7.53-0.2 7.48-4.62 7.93 -0.25 0.05-0.4 1.06 0 0.96 2.16-0.25 4.47-0.3 7.43-0.3 2.11 0 4.62 0.1 6.18 0.3 0.5 0.05 0.35-0.96 0.1-0.96 -4.67-0.35-4.67-0.7-4.67-7.93l0.01-21.9h3.49c6.58 0 7.38 1.16 7.84 3.36 0 0.1 0.95 0.1 0.9-0.05 -0.1-0.6-0.1-1.81-0.1-2.61 0-0.94 0.05-1.67 0.13-2.37L99.52 0.79z"/>
  <path class="st0" d="M65.78 0.79c-0.03-0.12-0.12-0.21-0.3-0.19 -0.28 0.04-0.6 0.06-0.93 0.1C63.48 0.82 56.98 0.91 56.98 0.91H45.53c0 0-6.5-0.09-7.56-0.21 -0.34-0.04-0.65-0.07-0.93-0.1 -0.18-0.02-0.27 0.07-0.3 0.19l0.03 0.21c0.08 0.7 0.13 1.43 0.13 2.37 0 0.81 0 2.01-0.1 2.61 -0.05 0.15 0.9 0.15 0.9 0.05 0.45-2.21 1.25-3.36 7.84-3.36h3.5l0.03 0.01v21.89c0 7.53-0.2 7.48-4.62 7.93 -0.25 0.05-0.4 1.06 0 0.96 2.16-0.25 4.47-0.3 7.43-0.3 2.11 0 4.62 0.1 6.18 0.3 0.5 0.05 0.35-0.96 0.1-0.96 -4.67-0.35-4.67-0.7-4.67-7.93l0.01-21.9h3.49c6.58 0 7.38 1.16 7.84 3.36 0 0.1 0.95 0.1 0.9-0.05 -0.1-0.6-0.1-1.81-0.1-2.61 0-0.94 0.05-1.67 0.13-2.37L65.78 0.79z"/>
</svg>